<svg width="72" height="72" viewBox="0 0 72 72" fill="none" xmlns="http://www.w3.org/2000/svg">
<path d="M42 6H18C16.4087 6 14.8826 6.63214 13.7574 7.75736C12.6321 8.88258 12 10.4087 12 12V60C12 61.5913 12.6321 63.1174 13.7574 64.2426C14.8826 65.3679 16.4087 66 18 66H54C55.5913 66 57.1174 65.3679 58.2426 64.2426C59.3679 63.1174 60 61.5913 60 60V24M42 6L60 24M42 6V24H60M48 39H24M48 51H24M30 27H24" stroke="#1E1E1E" stroke-width="4" stroke-linecap="round" stroke-linejoin="round"/>
<rect y="54" width="72" height="18" rx="5" fill="#B43F11"/>
<path d="M30.5824 61.4347H28.4517C28.4233 61.2159 28.3651 61.0185 28.277 60.8423C28.1889 60.6662 28.0724 60.5156 27.9276 60.3906C27.7827 60.2656 27.6108 60.1705 27.4119 60.1051C27.2159 60.0369 26.9986 60.0028 26.7599 60.0028C26.3366 60.0028 25.9716 60.1065 25.6648 60.3139C25.3608 60.5213 25.1264 60.821 24.9616 61.2131C24.7997 61.6051 24.7188 62.0795 24.7188 62.6364C24.7188 63.2159 24.8011 63.7017 24.9659 64.0938C25.1335 64.483 25.3679 64.777 25.669 64.9759C25.973 65.1719 26.3324 65.2699 26.7472 65.2699C26.9801 65.2699 27.1918 65.2401 27.3821 65.1804C27.5753 65.1207 27.7443 65.0341 27.8892 64.9205C28.0369 64.804 28.1577 64.6634 28.2514 64.4986C28.348 64.331 28.4148 64.142 28.4517 63.9318L30.5824 63.9446C30.5455 64.331 30.4332 64.7116 30.2457 65.0866C30.0611 65.4616 29.8068 65.804 29.483 66.1136C29.1591 66.4205 28.7642 66.6648 28.2983 66.8466C27.8352 67.0284 27.304 67.1193 26.7045 67.1193C25.9148 67.1193 25.2074 66.946 24.5824 66.5994C23.9602 66.25 23.4688 65.7415 23.108 65.0739C22.7472 64.4062 22.5668 63.5937 22.5668 62.6364C22.5668 61.6761 22.75 60.8622 23.1165 60.1946C23.483 59.527 23.9787 59.0199 24.6037 58.6733C25.2287 58.3267 25.929 58.1534 26.7045 58.1534C27.233 58.1534 27.7216 58.2273 28.1705 58.375C28.6193 58.5199 29.0142 58.733 29.3551 59.0142C29.696 59.2926 29.973 59.6349 30.1861 60.0412C30.3991 60.4474 30.5312 60.9119 30.5824 61.4347ZM37.7067 60.8892C37.6783 60.5767 37.5519 60.3338 37.3275 60.1605C37.1059 59.9844 36.7891 59.8963 36.3772 59.8963C36.1045 59.8963 35.8772 59.9318 35.6954 60.0028C35.5136 60.0739 35.3772 60.1719 35.2863 60.2969C35.1954 60.419 35.1485 60.5597 35.1457 60.7188C35.14 60.8494 35.1656 60.9645 35.2224 61.0639C35.282 61.1634 35.3673 61.2514 35.4781 61.3281C35.5917 61.402 35.7281 61.4673 35.8871 61.5241C36.0462 61.581 36.2252 61.6307 36.4241 61.6733L37.1741 61.8438C37.6059 61.9375 37.9866 62.0625 38.3161 62.2188C38.6485 62.375 38.9269 62.5611 39.1513 62.777C39.3786 62.9929 39.5505 63.2415 39.667 63.5227C39.7835 63.804 39.8431 64.1193 39.846 64.4688C39.8431 65.0199 39.7039 65.4929 39.4283 65.8878C39.1528 66.2827 38.7565 66.5852 38.2394 66.7955C37.7252 67.0057 37.1045 67.1108 36.3772 67.1108C35.6471 67.1108 35.0107 67.0014 34.4681 66.7827C33.9255 66.5639 33.5036 66.2315 33.2025 65.7855C32.9013 65.3395 32.7465 64.7756 32.738 64.0938H34.7579C34.7749 64.375 34.8502 64.6094 34.9837 64.7969C35.1173 64.9844 35.3005 65.1264 35.5335 65.223C35.7692 65.3196 36.042 65.3679 36.3516 65.3679C36.6357 65.3679 36.8772 65.3295 37.0761 65.2528C37.2778 65.1761 37.4326 65.0696 37.5406 64.9332C37.6485 64.7969 37.7039 64.6406 37.7067 64.4645C37.7039 64.2997 37.6528 64.1591 37.5533 64.0426C37.4539 63.9233 37.3005 63.821 37.0931 63.7358C36.8886 63.6477 36.6272 63.5668 36.309 63.4929L35.3971 63.2798C34.6414 63.1065 34.0462 62.8267 33.6116 62.4403C33.1769 62.0511 32.961 61.5256 32.9638 60.8636C32.961 60.3239 33.1059 59.8509 33.3985 59.4446C33.6911 59.0384 34.096 58.7216 34.613 58.4943C35.13 58.267 35.7195 58.1534 36.3815 58.1534C37.0576 58.1534 37.6442 58.2685 38.1414 58.4986C38.6414 58.7259 39.0292 59.0455 39.3048 59.4574C39.5803 59.8693 39.721 60.3466 39.7266 60.8892H37.7067ZM44.0928 58.2727L46.0445 64.6648H46.117L48.0687 58.2727H50.4295L47.4849 67H44.6766L41.732 58.2727H44.0928Z" fill="white"/>
</svg>
