<svg width="72" height="72" viewBox="0 0 72 72" fill="none" xmlns="http://www.w3.org/2000/svg">
<path d="M42 6H18C16.4087 6 14.8826 6.63214 13.7574 7.75736C12.6321 8.88258 12 10.4087 12 12V60C12 61.5913 12.6321 63.1174 13.7574 64.2426C14.8826 65.3679 16.4087 66 18 66H54C55.5913 66 57.1174 65.3679 58.2426 64.2426C59.3679 63.1174 60 61.5913 60 60V24M42 6L60 24M42 6V24H60M48 39H24M48 51H24M30 27H24" stroke="#1E1E1E" stroke-width="4" stroke-linecap="round" stroke-linejoin="round"/>
<rect y="47" width="72" height="25" rx="5" fill="#B43F11"/>
<path d="M27.5888 58.1882H24.2152C24.1702 57.8419 24.078 57.5292 23.9386 57.2504C23.7991 56.9715 23.6147 56.7331 23.3853 56.5352C23.1559 56.3372 22.8838 56.1866 22.5689 56.0831C22.2585 55.9751 21.9144 55.9212 21.5366 55.9212C20.8664 55.9212 20.2884 56.0853 19.8026 56.4137C19.3213 56.7421 18.9502 57.2166 18.6893 57.8374C18.4329 58.4581 18.3047 59.2093 18.3047 60.0909C18.3047 61.0085 18.4351 61.7777 18.696 62.3984C18.9614 63.0147 19.3325 63.4802 19.8093 63.7951C20.2906 64.1055 20.8596 64.2607 21.5163 64.2607C21.8852 64.2607 22.2203 64.2134 22.5217 64.119C22.8275 64.0245 23.0952 63.8873 23.3246 63.7074C23.5585 63.523 23.7496 63.3003 23.8981 63.0394C24.051 62.774 24.1567 62.4749 24.2152 62.142L27.5888 62.1623C27.5303 62.774 27.3526 63.3768 27.0558 63.9705C26.7634 64.5643 26.3608 65.1063 25.848 65.5966C25.3352 66.0824 24.71 66.4692 23.9723 66.7571C23.2391 67.045 22.398 67.1889 21.4489 67.1889C20.1984 67.1889 19.0784 66.9145 18.0888 66.3658C17.1037 65.8125 16.3255 65.0073 15.7543 63.9503C15.183 62.8932 14.8974 61.6068 14.8974 60.0909C14.8974 58.5705 15.1875 57.2818 15.7678 56.2248C16.348 55.1677 17.1329 54.3648 18.1225 53.8161C19.1121 53.2673 20.2209 52.9929 21.4489 52.9929C22.2855 52.9929 23.0592 53.1098 23.7699 53.3438C24.4806 53.5732 25.1058 53.9105 25.6456 54.3558C26.1854 54.7966 26.6239 55.3387 26.9613 55.9819C27.2987 56.6251 27.5078 57.3606 27.5888 58.1882ZM38.869 57.3246C38.824 56.8298 38.6239 56.4452 38.2685 56.1708C37.9177 55.8919 37.4161 55.7525 36.7639 55.7525C36.3321 55.7525 35.9722 55.8087 35.6844 55.9212C35.3965 56.0336 35.1806 56.1888 35.0366 56.3867C34.8927 56.5801 34.8185 56.8028 34.814 57.0547C34.805 57.2616 34.8455 57.4438 34.9354 57.6012C35.0299 57.7586 35.1648 57.8981 35.3403 58.0195C35.5202 58.1365 35.7361 58.2399 35.988 58.3299C36.2399 58.4199 36.5233 58.4986 36.8381 58.5661L38.0256 58.8359C38.7093 58.9844 39.3121 59.1823 39.8339 59.4297C40.3601 59.6771 40.801 59.9717 41.1563 60.3136C41.5162 60.6554 41.7883 61.049 41.9727 61.4943C42.1571 61.9396 42.2516 62.4389 42.2561 62.9922C42.2516 63.8648 42.0312 64.6138 41.5949 65.239C41.1586 65.8642 40.5311 66.3433 39.7124 66.6761C38.8983 67.009 37.9154 67.1754 36.7639 67.1754C35.6079 67.1754 34.6003 67.0022 33.7412 66.6559C32.882 66.3095 32.2141 65.7833 31.7373 65.0771C31.2605 64.3709 31.0153 63.478 31.0018 62.3984H34.2C34.227 62.8438 34.3462 63.2148 34.5576 63.5117C34.769 63.8086 35.0591 64.0335 35.428 64.1864C35.8013 64.3394 36.2331 64.4158 36.7234 64.4158C37.1732 64.4158 37.5556 64.3551 37.8704 64.2337C38.1898 64.1122 38.4349 63.9435 38.6059 63.7276C38.7768 63.5117 38.8645 63.2643 38.869 62.9854C38.8645 62.7245 38.7836 62.5019 38.6261 62.3175C38.4687 62.1286 38.2258 61.9666 37.8974 61.8317C37.5736 61.6922 37.1597 61.564 36.6559 61.4471L35.2121 61.1097C34.0156 60.8353 33.0732 60.3923 32.385 59.7805C31.6968 59.1643 31.3549 58.3321 31.3594 57.2841C31.3549 56.4295 31.5843 55.6805 32.0476 55.0373C32.5109 54.3941 33.1519 53.8925 33.9706 53.5327C34.7892 53.1728 35.7226 52.9929 36.7706 52.9929C37.8412 52.9929 38.7701 53.1751 39.5572 53.5394C40.3489 53.8993 40.9629 54.4053 41.3992 55.0575C41.8355 55.7098 42.0582 56.4654 42.0672 57.3246H38.869ZM48.9803 53.1818L52.0705 63.3026H52.1852L55.2754 53.1818H59.0133L54.351 67H49.9047L45.2424 53.1818H48.9803Z" fill="white"/>
</svg>
