<svg width="72" height="72" viewBox="0 0 72 72" fill="none" xmlns="http://www.w3.org/2000/svg">
<path d="M42 6H18C16.4087 6 14.8826 6.63214 13.7574 7.75736C12.6321 8.88258 12 10.4087 12 12V60C12 61.5913 12.6321 63.1174 13.7574 64.2426C14.8826 65.3679 16.4087 66 18 66H54C55.5913 66 57.1174 65.3679 58.2426 64.2426C59.3679 63.1174 60 61.5913 60 60V24M42 6L60 24M42 6V24H60M48 39H24M48 51H24M30 27H24" stroke="#1E1E1E" stroke-width="4" stroke-linecap="round" stroke-linejoin="round"/>
<rect y="54" width="72" height="18" rx="5" fill="#42B411"/>
<path d="M21.7955 58.2727L23.3892 61.0298H23.4574L25.0682 58.2727H27.429L24.7955 62.6364L27.5142 67H25.0938L23.4574 64.2131H23.3892L21.7528 67H19.3494L22.0554 62.6364L19.4176 58.2727H21.7955ZM29.7199 67V58.2727H31.8293V65.2869H35.4599V67H29.7199ZM42.4692 60.8892C42.4408 60.5767 42.3144 60.3338 42.09 60.1605C41.8684 59.9844 41.5516 59.8963 41.1397 59.8963C40.867 59.8963 40.6397 59.9318 40.4579 60.0028C40.2761 60.0739 40.1397 60.1719 40.0488 60.2969C39.9579 60.419 39.911 60.5597 39.9082 60.7188C39.9025 60.8494 39.9281 60.9645 39.9849 61.0639C40.0445 61.1634 40.1298 61.2514 40.2406 61.3281C40.3542 61.402 40.4906 61.4673 40.6496 61.5241C40.8087 61.581 40.9877 61.6307 41.1866 61.6733L41.9366 61.8438C42.3684 61.9375 42.7491 62.0625 43.0786 62.2188C43.411 62.375 43.6894 62.5611 43.9138 62.777C44.1411 62.9929 44.313 63.2415 44.4295 63.5227C44.546 63.804 44.6056 64.1193 44.6085 64.4688C44.6056 65.0199 44.4664 65.4929 44.1908 65.8878C43.9153 66.2827 43.519 66.5852 43.0019 66.7955C42.4877 67.0057 41.867 67.1108 41.1397 67.1108C40.4096 67.1108 39.7732 67.0014 39.2306 66.7827C38.688 66.5639 38.2661 66.2315 37.965 65.7855C37.6638 65.3395 37.509 64.7756 37.5005 64.0938H39.5204C39.5374 64.375 39.6127 64.6094 39.7462 64.7969C39.8798 64.9844 40.063 65.1264 40.296 65.223C40.5317 65.3196 40.8045 65.3679 41.1141 65.3679C41.3982 65.3679 41.6397 65.3295 41.8386 65.2528C42.0403 65.1761 42.1951 65.0696 42.3031 64.9332C42.411 64.7969 42.4664 64.6406 42.4692 64.4645C42.4664 64.2997 42.4153 64.1591 42.3158 64.0426C42.2164 63.9233 42.063 63.821 41.8556 63.7358C41.6511 63.6477 41.3897 63.5668 41.0715 63.4929L40.1596 63.2798C39.4039 63.1065 38.8087 62.8267 38.3741 62.4403C37.9394 62.0511 37.7235 61.5256 37.7263 60.8636C37.7235 60.3239 37.8684 59.8509 38.161 59.4446C38.4536 59.0384 38.8585 58.7216 39.3755 58.4943C39.8925 58.267 40.482 58.1534 41.144 58.1534C41.8201 58.1534 42.4067 58.2685 42.9039 58.4986C43.4039 58.7259 43.7917 59.0455 44.0673 59.4574C44.3428 59.8693 44.4835 60.3466 44.4891 60.8892H42.4692ZM49.0087 58.2727L50.6025 61.0298H50.6707L52.2815 58.2727H54.6423L52.0087 62.6364L54.7275 67H52.307L50.6707 64.2131H50.6025L48.9661 67H46.5627L49.2687 62.6364L46.6309 58.2727H49.0087Z" fill="white"/>
</svg>
