<svg width="72" height="72" viewBox="0 0 72 72" fill="none" xmlns="http://www.w3.org/2000/svg">
<path d="M42 6H18C16.4087 6 14.8826 6.63214 13.7574 7.75736C12.6321 8.88258 12 10.4087 12 12V60C12 61.5913 12.6321 63.1174 13.7574 64.2426C14.8826 65.3679 16.4087 66 18 66H54C55.5913 66 57.1174 65.3679 58.2426 64.2426C59.3679 63.1174 60 61.5913 60 60V24M42 6L60 24M42 6V24H60M48 39H24M48 51H24M30 27H24" stroke="#1E1E1E" stroke-width="4" stroke-linecap="round" stroke-linejoin="round"/>
<rect y="47" width="72" height="25" rx="5" fill="#42B411"/>
<path d="M13.4261 53.1818L15.9496 57.5472H16.0575L18.608 53.1818H22.3459L18.1761 60.0909L22.4808 67H18.6484L16.0575 62.5874H15.9496L13.3587 67H9.55327L13.8377 60.0909L9.66122 53.1818H13.4261ZM25.9732 67V53.1818H29.313V64.2876H35.0616V67H25.9732ZM46.1596 57.3246C46.1147 56.8298 45.9145 56.4452 45.5591 56.1708C45.2083 55.8919 44.7068 55.7525 44.0545 55.7525C43.6227 55.7525 43.2629 55.8087 42.975 55.9212C42.6871 56.0336 42.4712 56.1888 42.3273 56.3867C42.1833 56.5801 42.1091 56.8028 42.1046 57.0547C42.0956 57.2616 42.1361 57.4438 42.226 57.6012C42.3205 57.7586 42.4555 57.8981 42.6309 58.0195C42.8108 58.1365 43.0267 58.2399 43.2786 58.3299C43.5305 58.4199 43.8139 58.4986 44.1287 58.5661L45.3162 58.8359C46 58.9844 46.6027 59.1823 47.1245 59.4297C47.6508 59.6771 48.0916 59.9717 48.4469 60.3136C48.8068 60.6554 49.0789 61.049 49.2633 61.4943C49.4478 61.9396 49.5422 62.4389 49.5467 62.9922C49.5422 63.8648 49.3218 64.6138 48.8855 65.239C48.4492 65.8642 47.8217 66.3433 47.003 66.6761C46.1889 67.009 45.206 67.1754 44.0545 67.1754C42.8985 67.1754 41.8909 67.0022 41.0318 66.6559C40.1727 66.3095 39.5047 65.7833 39.0279 65.0771C38.5511 64.3709 38.3059 63.478 38.2925 62.3984H41.4906C41.5176 62.8438 41.6368 63.2148 41.8482 63.5117C42.0596 63.8086 42.3497 64.0335 42.7186 64.1864C43.0919 64.3394 43.5238 64.4158 44.014 64.4158C44.4639 64.4158 44.8462 64.3551 45.1611 64.2337C45.4804 64.1122 45.7256 63.9435 45.8965 63.7276C46.0674 63.5117 46.1551 63.2643 46.1596 62.9854C46.1551 62.7245 46.0742 62.5019 45.9167 62.3175C45.7593 62.1286 45.5164 61.9666 45.188 61.8317C44.8642 61.6922 44.4504 61.564 43.9466 61.4471L42.5027 61.1097C41.3062 60.8353 40.3638 60.3923 39.6756 59.7805C38.9874 59.1643 38.6456 58.3321 38.6501 57.2841C38.6456 56.4295 38.875 55.6805 39.3383 55.0373C39.8016 54.3941 40.4425 53.8925 41.2612 53.5327C42.0799 53.1728 43.0132 52.9929 44.0613 52.9929C45.1318 52.9929 46.0607 53.1751 46.8479 53.5394C47.6395 53.8993 48.2535 54.4053 48.6898 55.0575C49.1261 55.7098 49.3488 56.4654 49.3578 57.3246H46.1596ZM56.5138 53.1818L59.0373 57.5472H59.1452L61.6957 53.1818H65.4336L61.2638 60.0909L65.5685 67H61.7361L59.1452 62.5874H59.0373L56.4464 67H52.641L56.9254 60.0909L52.7489 53.1818H56.5138Z" fill="white"/>
</svg>
